<?xml version="1.0" encoding="utf-8"?>
<!-- Generator: Adobe Illustrator 25.2.1, SVG Export Plug-In . SVG Version: 6.00 Build 0)  -->
<svg version="1.1" id="Capa_1" xmlns="http://www.w3.org/2000/svg" xmlns:xlink="http://www.w3.org/1999/xlink" x="0px" y="0px"
	 viewBox="0 0 697 347" style="enable-background:new 0 0 697 347;" xml:space="preserve">
<style type="text/css">
	.st0{fill:url(#SVGID_1_);}
	.st1{fill:url(#SVGID_2_);}
	.st2{fill:url(#SVGID_3_);}
	.st3{fill:url(#SVGID_4_);}
	.st4{fill:url(#SVGID_5_);}
	.st5{fill:url(#SVGID_6_);}
	.st6{fill:url(#SVGID_7_);}
	.st7{fill:url(#SVGID_8_);}
	.st8{fill:url(#SVGID_9_);}
	.st9{fill:url(#SVGID_10_);}
	.st10{fill:url(#SVGID_11_);}
</style>
<linearGradient id="SVGID_1_" gradientUnits="userSpaceOnUse" x1="136.7706" y1="0.1669" x2="136.7706" y2="347.0497">
	<stop  offset="0" style="stop-color:#FFFFFF"/>
	<stop  offset="0.6546" style="stop-color:#E7E6E6"/>
</linearGradient>
<path class="st0" d="M0,0.2h116.9v256.2h156.6V347H0V0.2z"/>
<g>
	<linearGradient id="SVGID_2_" gradientUnits="userSpaceOnUse" x1="697.035" y1="173.4482" x2="682.5811" y2="173.4482">
		<stop  offset="0" style="stop-color:#FFFFFF"/>
		<stop  offset="0.6546" style="stop-color:#E7E6E6"/>
	</linearGradient>
	<path class="st1" d="M696,346.9h-12.5c-0.6,0-1-0.4-1-1V1c0-0.6,0.4-1,1-1H696c0.6,0,1,0.4,1,1v344.9
		C697,346.4,696.6,346.9,696,346.9z"/>
	<linearGradient id="SVGID_3_" gradientUnits="userSpaceOnUse" x1="338.4499" y1="173.4482" x2="323.9958" y2="173.4482">
		<stop  offset="0" style="stop-color:#FFFFFF"/>
		<stop  offset="0.6546" style="stop-color:#E7E6E6"/>
	</linearGradient>
	<path class="st2" d="M337.4,346.9H325c-0.6,0-1-0.4-1-1V1c0-0.6,0.4-1,1-1h12.5c0.6,0,1,0.4,1,1v344.9
		C338.4,346.4,338,346.9,337.4,346.9z"/>
	<linearGradient id="SVGID_4_" gradientUnits="userSpaceOnUse" x1="492.228" y1="173.4482" x2="351.4585" y2="173.4482">
		<stop  offset="0" style="stop-color:#FFFFFF"/>
		<stop  offset="0.6546" style="stop-color:#E7E6E6"/>
	</linearGradient>
	<polygon class="st3" points="492.2,318 351.5,346.9 351.5,0 492.2,122.5 	"/>
	<linearGradient id="SVGID_5_" gradientUnits="userSpaceOnUse" x1="669.5724" y1="173.4482" x2="528.8029" y2="173.4482">
		<stop  offset="0" style="stop-color:#FFFFFF"/>
		<stop  offset="0.6546" style="stop-color:#E7E6E6"/>
	</linearGradient>
	<polygon class="st4" points="528.8,318 669.6,346.9 669.6,0 528.8,122.5 	"/>
	<linearGradient id="SVGID_6_" gradientUnits="userSpaceOnUse" x1="474.8203" y1="199.214" x2="486.1321" y2="199.214">
		<stop  offset="0" style="stop-color:#FFFFFF"/>
		<stop  offset="0.6546" style="stop-color:#E7E6E6"/>
	</linearGradient>
	<path class="st5" d="M484.5,202.4h-8c-0.9,0-1.7-0.7-1.7-1.7v-3c0-0.9,0.7-1.7,1.7-1.7h8c0.9,0,1.7,0.7,1.7,1.7v3
		C486.1,201.6,485.4,202.4,484.5,202.4z"/>
	<linearGradient id="SVGID_7_" gradientUnits="userSpaceOnUse" x1="535.1501" y1="199.214" x2="546.4619" y2="199.214">
		<stop  offset="0" style="stop-color:#FFFFFF"/>
		<stop  offset="0.6546" style="stop-color:#E7E6E6"/>
	</linearGradient>
	<path class="st6" d="M544.8,202.4h-8c-0.9,0-1.7-0.7-1.7-1.7v-3c0-0.9,0.7-1.7,1.7-1.7h8c0.9,0,1.7,0.7,1.7,1.7v3
		C546.5,201.6,545.7,202.4,544.8,202.4z"/>
	<linearGradient id="SVGID_8_" gradientUnits="userSpaceOnUse" x1="347.8764" y1="81.6966" x2="341.592" y2="81.6966">
		<stop  offset="0" style="stop-color:#FFFFFF"/>
		<stop  offset="0.6546" style="stop-color:#E7E6E6"/>
	</linearGradient>
	<path class="st7" d="M346.9,89.2h-4.3c-0.6,0-1-0.4-1-1V75.2c0-0.6,0.4-1,1-1h4.3c0.6,0,1,0.4,1,1v13.1
		C347.9,88.8,347.4,89.2,346.9,89.2z"/>
	<linearGradient id="SVGID_9_" gradientUnits="userSpaceOnUse" x1="347.8764" y1="270.2272" x2="341.592" y2="270.2272">
		<stop  offset="0" style="stop-color:#FFFFFF"/>
		<stop  offset="0.6546" style="stop-color:#E7E6E6"/>
	</linearGradient>
	<path class="st8" d="M346.9,277.8h-4.3c-0.6,0-1-0.4-1-1v-13.1c0-0.6,0.4-1,1-1h4.3c0.6,0,1,0.4,1,1v13.1
		C347.9,277.3,347.4,277.8,346.9,277.8z"/>
	<linearGradient id="SVGID_10_" gradientUnits="userSpaceOnUse" x1="679.6902" y1="81.6966" x2="673.4059" y2="81.6966">
		<stop  offset="0" style="stop-color:#FFFFFF"/>
		<stop  offset="0.6546" style="stop-color:#E7E6E6"/>
	</linearGradient>
	<path class="st9" d="M678.7,89.2h-4.3c-0.6,0-1-0.4-1-1V75.2c0-0.6,0.4-1,1-1h4.3c0.6,0,1,0.4,1,1v13.1
		C679.7,88.8,679.2,89.2,678.7,89.2z"/>
	<linearGradient id="SVGID_11_" gradientUnits="userSpaceOnUse" x1="679.6902" y1="270.2272" x2="673.4059" y2="270.2272">
		<stop  offset="0" style="stop-color:#FFFFFF"/>
		<stop  offset="0.6546" style="stop-color:#E7E6E6"/>
	</linearGradient>
	<path class="st10" d="M678.7,277.8h-4.3c-0.6,0-1-0.4-1-1v-13.1c0-0.6,0.4-1,1-1h4.3c0.6,0,1,0.4,1,1v13.1
		C679.7,277.3,679.2,277.8,678.7,277.8z"/>
</g>
</svg>
